# xmcd
#
# Track frame offsets:
#	150
#	16520
#	32592
#	53239
#	71930
#	90310
#	111412
#	128304
#	149587
#	170102
#	199682
#	221209
#	247105
#
# Disc length: 3684 seconds
#
# Revision: 0
# Processed by: cddbd v1.5.2PL0 Copyright (c) Steve Scherf et al.
# Submitted via: EasyCDDAExtractor 12.0.4.1
#
DISCID=bd0e620d
DTITLE=Neil Murray - the Wondering kind
DYEAR=2000
DGENRE=Folk-Rock
TTITLE0=Late This Night
TTITLE1=Eddie Mabo
TTITLE2=This Time
TTITLE3=Can't Win
TTITLE4=Cooling Winds
TTITLE5=Driving Days
TTITLE6=Little One
TTITLE7=Empty House
TTITLE8=Good Light in Broome
TTITLE9=Wings to Work
TTITLE10=Something I Feel
TTITLE11=Anywhere Tonight
TTITLE12=We'll No Return
EXTD=ID3G: 81\n
EXTT0=
EXTT1=
EXTT2=
EXTT3=
EXTT4=
EXTT5=
EXTT6=
EXTT7=
EXTT8=
EXTT9=
EXTT10=
EXTT11=
EXTT12=
PLAYORDER=
